<?xml version="1.0" encoding="utf-8"?>
<!-- Generator: Adobe Illustrator 24.0.2, SVG Export Plug-In . SVG Version: 6.00 Build 0)  -->
<svg version="1.1" id="Capa_1" xmlns="http://www.w3.org/2000/svg" xmlns:xlink="http://www.w3.org/1999/xlink" x="0px" y="0px"
	 viewBox="0 0 825.31 216" style="enable-background:new 0 0 825.31 216;" xml:space="preserve" preserveAspectRatio="none" fill="rgb(46 61 100)">
<g>
	<path d="M624.56,216.75c-1.66-0.44-3.4-0.71-4.97-1.38c-2.04-0.87-4-1.96-5.87-3.16c-1.6-1.03-1.6-2.79-1.18-4.4
		c0.43-1.67,1.95-1.83,3.34-1.7c2.47,0.23,4.96,0.5,7.39,1.01c4.03,0.84,4.66,0.68,6.85-2.61c0.35-0.52,0.68-1.05,0.99-1.59
		c1.14-1.95,1.07-2.36-0.67-3.72c-0.68-0.54-1.49-0.94-2.09-1.56c-1.75-1.79-2.04-3.68-0.78-5.79
		c6.44-10.75,10.61-22.53,15.56-33.95c1.59-3.66,2.99-7.39,4.57-11.05c0.49-1.12,0.38-1.99-0.61-2.58
		c-5.44-3.22-4.13-8.24-3.4-13.01c0.32-2.07,1.19-4.05,1.86-6.06c0.84-2.49,1.16-4.91,0.83-7.64c-0.34-2.75,0.34-5.68,0.88-8.48
		c1.88-9.71,5.04-19.02,9.16-27.99c2.02-4.4,4.4-8.63,6.41-13.04c2.75-6.01,5.31-12.1,7.94-18.16c0.15-0.34,0.12-0.8,0.34-1.06
		c3.19-3.89,0.96-7.53-0.96-10.76c-1.46-2.45-1.84-4.45-0.48-6.84c0.87-1.52,1.21-2.62-0.7-3.98c-1.96-1.39-1.39-3.51,0.89-4.04
		c1.15-0.26,1.57-0.77,2.11-1.7c1.08-1.84,2.45-3.46,4.89-3.62c3.29-0.22,6.61-0.26,9.2,2.09c0.74,0.67,0.89,2.27,0.87,3.43
		c-0.03,2.02,0.66,3.27,2.2,4.72c1.92,1.8,2.97,4.35,5.46,5.91c1.75,1.09,1.58,3.92,0.49,5.45c-1.41,1.99-4.11,2.9-6.21,2.11
		c-1.04-0.39-2.08-0.93-3.15-1.02c-3.91-0.33-4.28,0.23-2.8,3.86c0.09,0.23,0.21,0.46,0.24,0.7c1.32,8.85,6.67,15.79,11.28,22.97
		c5.18,8.07,10.84,15.85,16.64,23.49c3.83,5.06,8.31,9.63,12.41,14.49c1.43,1.7,2.87,3.5,3.74,5.51c0.85,1.96,1.94,3.56,3.79,4.4
		c2.51,1.15,3.92,3.1,4.58,5.58c0.52,1.94,1.71,3.18,3.13,4.48c4.05,3.71,7.99,7.54,11.87,11.42c5.29,5.29,10.52,10.66,15.7,16.06
		c1.01,1.05,1.76,1.57,3.12,0.57c2.68-1.97,5.2-1.05,7.52,0.77c3.91,3.08,7.8,6.2,11.65,9.36c1.72,1.41,3.67,1.63,5.66,1.17
		c7.2-1.68,12.14,2.26,16.9,6.65c1.54,1.42,2.87,3.09,4.47,4.45c3.3,2.81,4.61,8.28,2.74,12.14c-0.33,0.67-0.66,1.34-1.02,2
		c-0.82,1.52-0.94,2.92-0.09,4.59c1.59,3.12-0.3,6.18-3.64,5.5c-2.83-0.57-4.49,0.33-6.18,2.21c-0.82,0.92-1.93,1.57-2.84,2.42
		c-1.69,1.57-3,3.24-2.16,5.84c0.77,2.4-0.9,3.96-2.35,5.52c-0.75,0-1.5,0-2.25,0c-0.78-0.79-1.87-1.44-2.28-2.38
		c-0.75-1.74-2.04-2.7-3.55-3.66c-5.06-3.23-9.62-7.06-13.7-11.48c-1.69-1.83-3.53-3.53-5.38-5.21c-4.7-4.26-9.45-8.48-14.18-12.72
		c-0.37-0.33-0.72-0.69-1.05-1.07c-3.89-4.37-3.92-8.84-0.13-13.31c0.56-0.66,1.2-1.35,1.48-2.14c0.19-0.55,0.04-1.53-0.35-1.91
		c-4.1-4.01-8.29-7.93-12.42-11.91c-1.97-1.9-3.91-3.82-5.79-5.81c-2.91-3.07-5.74-6.22-8.64-9.31c-2.21-2.36-4.54-4.62-6.64-7.07
		c-0.66-0.77-1.15-2.11-0.99-3.07c0.56-3.39-0.58-5.51-3.91-6.41c-0.11-0.03-0.19-0.16-0.29-0.23
		c-8.01-5.42-15.06-11.88-21.17-19.38c-1.29-1.59-2.63-3.15-3.94-4.72c-0.02,1.93,0.49,3.56,1.21,5.1
		c2.57,5.49,3.57,11.39,4.36,17.31c0.92,6.89,1.32,13.87,2.45,20.72c1.18,7.11,2.91,14.12,4.5,21.16c0.74,3.26,1.38,6.6,2.64,9.68
		c2.87,7.01,6.09,13.88,9.18,20.8c0.64,1.43,1.05,2.83-0.11,4.2c-1.06,1.25-0.58,2.25,0.44,3.24c1.17,1.12,2.35,2.23,3.41,3.45
		c1.91,2.2,2.06,3.21,0.36,5.65c-1.56,2.24-3.48,4.22-5.13,6.4c-2.65,3.49-7.3,4.5-10.97,2.32c-1.36-0.81-1.88-1.99-1.54-3.48
		c0.32-1.4,1.02-2.37,2.69-2.7c1.38-0.27,2.83-0.92,3.91-1.81c1.21-1.01,0.93-2.5-0.23-3.6c-1.16-1.09-1.93-0.36-2.86,0.44
		c-1.02,0.89-2.12,1.9-3.35,2.24c-1.03,0.29-2.66,0.08-3.41-0.6c-2.21-1.99-4.21-4.26-6.14-6.54c-6.48-7.66-10.19-16.81-13.1-26.2
		c-1.94-6.25-2.77-12.85-4.13-19.28c-0.12-0.55-0.55-1.03-0.84-1.55c-0.5,0.45-1.24,0.8-1.46,1.36c-1.6,4.05-3.08,8.15-4.64,12.22
		c-1.6,4.18-3.04,8.45-4.93,12.5c-3.06,6.54-6.32,13-9.73,19.36c-1.4,2.6-3.4,4.88-5.14,7.3c-2.63,3.68-5.77,4.82-9.81,2.11
		c-1.32-0.89-2.4-0.17-3.15,1c-0.94,1.47-1.72,3.05-2.75,4.46c-1.16,1.59-2.53,3.03-3.8,4.54
		C630.06,216.75,627.31,216.75,624.56,216.75z M683.81,67.14c0-0.75,0.02-1.5,0-2.24c-0.11-3.34-0.97-6.36-3.47-8.79
		c-1.07-1.04-1.99-1.07-3.32-0.5c-2.74,1.17-3.83,3.36-4.35,6.07c-1.47,7.69-2.76,15.42-4.52,23.04
		c-2.41,10.42-4.82,20.88-9.56,30.58c-1.43,2.93-1.84,5.25,1.35,7.52c2.28,1.62,1.99,1.93,3.85-0.33c4.73-5.74,7.89-12.43,11.11-19
		C680.49,92.09,683.22,79.86,683.81,67.14z M766.58,164.22c-0.6,0.36-1.07,0.55-1.43,0.86c-1.6,1.39-3.25,2.73-4.72,4.25
		c-2.38,2.45-2.58,4.43-0.62,7.34c1.1,1.63,2.37,3.32,3.94,4.44c6.23,4.44,11.29,10.18,17.1,15.08c2.95,2.49,5.69,5.24,8.62,7.75
		c1.22,1.05,2.65,1.87,4.07,2.65c2.36,1.3,4.22,1.12,6.15-0.62c1.48-1.33,2.88-2.76,4.2-4.25c1.55-1.76,1.59-2.48-0.18-4.1
		c-3.04-2.77-6.2-5.41-9.35-8.04c-4.5-3.75-9.23-7.24-13.51-11.22c-4.29-3.98-8.15-8.44-12.23-12.65
		C768.03,165.14,767.27,164.73,766.58,164.22z M647,134.99c-1.26,3.3-0.92,5.08,1.31,6.44c3.7,2.25,7.76,3.28,12.1,3.06
		c2.85-0.15,5.7-0.46,8.55-0.67c3.58-0.27,7.17-0.49,10.75-0.8c1.6-0.14,3.18-0.62,4.78-0.64c1.92-0.02,2.85-0.98,2.86-2.69
		c0.01-2.22-0.07-4.47-0.45-6.65c-0.65-3.65-1.88-7.22-2.3-10.89c-0.45-3.93-3.02-6.28-5.98-7.45c-4.33-1.71-5.03-2.07-7.09,2.27
		c-0.25,0.53-0.62,1-1.25,2.01c1.81,0.06,3.13,0.06,4.44,0.15c2.35,0.16,3.35,0.74,3.67,2.94c0.62,4.2,0.71,8.43-0.43,12.6
		c-0.37,1.34-1.18,2.35-2.51,2.45c-4.31,0.34-8.57,1.78-12.96,0.69c-0.84-0.21-1.72-0.32-2.58-0.35
		C655.46,137.35,650.9,137.96,647,134.99z M772.87,157.21c-1.11,1.03-2.32,1.89-3.16,3.01c-0.77,1.02-0.22,2.15,0.63,3.02
		c4.62,4.71,9.06,9.61,13.91,14.08c5.12,4.72,10.6,9.04,15.95,13.5c2.01,1.67,4.1,3.23,6.15,4.86c1.21,0.96,2.3,0.91,3.18-0.39
		c2.59-3.85,3.57-3.18-0.11-7.03c-0.43-0.45-0.89-0.88-1.33-1.31c-7.88-7.78-17.03-14.16-24.63-22.26
		c-0.42-0.45-0.98-0.77-1.48-1.14c-2.19-1.62-4.38-3.25-6.59-4.85C774.71,158.22,773.94,157.84,772.87,157.21z M691.57,70.87
		c-0.12,0.03-0.25,0.07-0.37,0.1c0.35,1.4,0.84,2.79,1.01,4.21c0.18,1.48,0.22,3.01,0.02,4.48c-0.68,5.09,0.71,9.32,4.78,12.59
		c0.58,0.46,1.05,1.07,1.5,1.67c6.17,8.26,13.89,14.95,21.81,21.42c0.66,0.54,1.45,1.16,2.24,1.25c0.88,0.1,2.19-0.08,2.62-0.66
		c0.43-0.58,0.28-1.94-0.11-2.69c-0.49-0.95-1.51-1.63-2.27-2.45c-6.13-6.55-12.31-13.04-17.41-20.47
		C700.87,83.77,696.18,77.35,691.57,70.87z M727.87,126.51c0.71,1.17,1.02,2,1.59,2.56c1.96,1.9,4.11,3.61,6.03,5.56
		c3.15,3.19,6.08,6.6,9.27,9.75c5.15,5.07,10.42,10,15.68,14.96c1.38,1.3,2.34,1.23,3.52,0.01c1.17-1.21,0.71-2.23-0.3-3.22
		c-0.54-0.52-1.07-1.05-1.6-1.58c-5.43-5.48-10.89-10.93-16.29-16.44c-3.05-3.11-5.93-6.38-9-9.47c-0.82-0.82-1.99-1.51-3.1-1.75
		C732.03,126.53,730.29,126.63,727.87,126.51z M656.03,134.73c1.6,0.32,2.86,0.82,4.11,0.78c3.72-0.12,7.43-0.53,11.15-0.68
		c4.74-0.2,4.75-0.14,4.87-4.79c0.01-0.5,0.04-1,0.06-1.5c0.05-1.54-0.7-2.3-2.24-2.34c-4.22-0.1-8.46-0.41-12.42,1.51
		c-0.53,0.26-1.11,0.59-1.44,1.05C658.81,130.56,657.6,132.42,656.03,134.73z M814.97,188.42c1.32-3.6,0.61-5.9-1.43-7.94
		c-1.5-1.49-2.86-3.11-4.38-4.58c-2.13-2.06-4.16-4.32-6.59-5.95c-2.32-1.56-5.1-2.48-8.3-0.66
		C800.39,176.49,808.74,180.86,814.97,188.42z M664.75,80.12c-0.61,1.1-0.89,1.48-1.04,1.9c-1.15,3.14-2.29,6.28-3.41,9.44
		c-1.77,5.02-3.55,10.04-5.24,15.09c-0.31,0.91-0.31,1.96-0.27,2.93c0.02,0.38,0.5,0.94,0.88,1.05c0.32,0.09,0.99-0.23,1.17-0.56
		c0.76-1.41,1.62-2.82,2.04-4.34c2.03-7.4,3.94-14.82,5.84-22.26C664.92,82.6,664.75,81.75,664.75,80.12z M675.06,41.16
		c1.89,0.93,2.97,0.83,3.84-0.74c0.65-1.17,1.67-2.13,2.35-3.28c0.39-0.66,0.84-1.88,0.54-2.26c-1.6-2.02-3.4-3.9-5.23-5.73
		c-0.3-0.29-1.12-0.06-1.7-0.06c0.11,0.51,0.06,1.15,0.35,1.5c0.84,1,1.78,2.13,0.72,3.22c-0.41,0.43-1.89-0.17-2.88-0.31
		c-0.28,3.15-0.16,3.3,2.67,3.97c0.66,0.16,1.25,0.59,1.87,0.89c-0.47,0.64-0.91,1.29-1.41,1.9
		C675.96,40.52,675.63,40.71,675.06,41.16z M681.21,52.78c-0.29-2.36-0.54-4.4-0.8-6.46c-6.05,2.42-6.05,2.42-6.46,7.16
		C677.71,51.75,677.86,51.73,681.21,52.78z M658.26,126.77c-0.03-0.37,0.11-1.04-0.15-1.32c-0.8-0.83-1.68-1.74-2.72-2.11
		c-0.36-0.13-1.5,1.11-1.84,1.91c-0.47,1.1-0.53,2.39-0.75,3.6c-0.31,1.79,0.89,2.82,2.58,2.15
		C657.2,130.28,657.78,128.62,658.26,126.77z M649.77,124.03c1.93-1.03,3.71-1.94,3.91-4.44c0.15-1.93,0.91-3.81,1.41-5.72
		C651.86,116.57,650.9,120.31,649.77,124.03z M671.2,124.31c0-0.03,0-0.07,0-0.1c1.23,0,2.46,0.06,3.67-0.04
		c0.32-0.03,0.66-0.56,0.83-0.94c0.05-0.11-0.45-0.67-0.71-0.69c-1.83-0.1-3.67-0.2-5.5-0.1c-0.61,0.03-1.68,0.66-1.69,1.03
		c-0.02,1.41,1.2,0.71,1.93,0.83C670.21,124.38,670.71,124.31,671.2,124.31z M637.02,202.2c-1.16,0.69-1.91,0.89-2.21,1.37
		c-0.65,1.03-1.12,2.18-1.56,3.33c-0.23,0.59-0.46,1.74-0.28,1.83c1.18,0.59,1.41-0.56,1.75-1.26
		C635.45,205.97,636.06,204.42,637.02,202.2z M727.75,118.66c1.05,1.51,1.87,2.78,2.79,3.97c0.3,0.39,0.86,0.58,1.3,0.87
		c0.18-0.54,0.63-1.16,0.49-1.59C731.66,119.82,729.99,119.05,727.75,118.66z M689.6,75.06c-0.09,0-0.19,0.01-0.28,0.01
		c0,3.64,0,7.28,0,10.92c0.09,0,0.19-0.01,0.28-0.01C689.6,82.34,689.6,78.7,689.6,75.06z M648.01,126.56
		c-0.54,1.25-1.43,2.39-0.08,3.62c0.12,0.11,0.59,0.09,0.68-0.03C649.52,128.86,649.21,127.71,648.01,126.56z M717,200.41
		c-0.47-0.65-0.66-1.2-0.98-1.29c-0.35-0.09-0.81,0.25-1.22,0.4c0.18,0.4,0.26,0.97,0.57,1.14
		C715.66,200.82,716.19,200.56,717,200.41z"/>
	<path d="M445.12,109.38c-0.12,0.69-0.4,1.39-0.34,2.06c0.54,6.44-1.33,12.62-2.02,18.92c-0.55,5.07-1.07,10.15-1.81,15.19
		c-0.92,6.27-1.98,12.53-3.16,18.76c-0.24,1.26-0.97,2.67-1.92,3.49c-3.27,2.82-6.66,1.67-8.61-1.37c-1.26-1.96-2.25-4.24-2.76-6.51
		c-1.52-6.79-2.8-13.64-4.06-20.49c-0.97-5.26-1.77-10.54-2.61-15.82c-1.18-7.36-2.38-14.72-3.46-22.09
		c-0.8-5.53-1.46-11.09-2.09-16.65c-0.21-1.85-0.25-3.75-0.13-5.61c0.14-2.31,1.42-3.51,3.79-3.89c2.72-0.44,4.9,0.39,5.66,2.43
		c0.6,1.62,1.01,3.36,1.2,5.08c0.87,8.17,1.53,16.37,2.48,24.53c0.54,4.68,1.46,9.32,2.23,13.98c1.09,6.57,2.21,13.13,3.72,19.76
		c0.38-2.63,0.77-5.25,1.13-7.88c0.98-7.14,1.99-14.27,2.9-21.42c0.61-4.81,0.99-9.66,1.63-14.47c0.31-2.33,0.84-4.66,1.57-6.89
		c0.96-2.96,3.96-5.28,6.71-5.13c3.14,0.17,5.64,1.48,7.13,4.56c2.34,4.83,2.87,10.04,3.57,15.21c1.15,8.5,2.06,17.04,2.98,25.57
		c0.39,3.59,0.55,7.2,1.26,10.94c0.5-1.62,1.07-3.22,1.49-4.85c2.39-9.27,4.79-18.55,7.09-27.84c1.98-7.97,3.82-15.97,5.76-23.95
		c0.44-1.82,0.94-3.63,1.58-5.38c0.98-2.69,3.38-4.24,5.7-3.87c2.68,0.43,4.57,2.6,4.18,5.71c-0.44,3.56-1.39,7.07-2.3,10.55
		c-2.13,8.19-4.39,16.34-6.55,24.52c-1.55,5.89-3.19,11.77-4.49,17.72c-1.45,6.67-2.58,13.42-3.82,20.13
		c-0.79,4.27-1.5,8.56-2.3,12.83c-0.16,0.84-0.54,1.66-0.92,2.43c-1.17,2.39-3.3,3.53-5.78,3.43c-2.24-0.09-4.04-1.53-4.84-3.65
		c-0.91-2.43-1.65-4.97-2.14-7.52c-1.12-5.86-2.2-11.73-2.99-17.64c-0.76-5.67-1.09-11.39-1.69-17.08
		c-0.63-5.93-1.36-11.84-2.04-17.76C445.75,109.4,445.43,109.39,445.12,109.38z"/>
	<path d="M373.53,90.75c-1.32,0-2.92-0.45-3.87,0.14c-0.77,0.48-0.81,2.21-1.05,3.41c-1.66,8.42-3.29,16.85-4.93,25.28
		c-0.79,4.03-1.62,8.06-2.36,12.1c-2.21,12.11-4.38,24.23-6.58,36.35c-0.18,0.97-0.35,1.98-0.77,2.85c-1.11,2.31-2.8,3.14-5.13,2.68
		c-2.49-0.49-4-2.05-4.19-4.54c-0.34-4.4,0.63-8.67,1.46-12.95c2.26-11.6,4.51-23.19,6.7-34.8c1.82-9.65,3.5-19.33,5.34-28.98
		c2.12-11.11,4.42-22.19,6.48-33.32c0.83-4.52,1.32-9.1,1.79-13.68c0.31-2.95,1.28-5.61,2.94-7.99c2.87-4.14,7.65-3.81,9.8,0.78
		c1.95,4.16,3.75,8.38,4.63,12.98c1.78,9.3,3.33,18.61,3.97,28.07c0.43,6.33,0.75,12.69,1.56,18.98c1.27,9.86,2.82,19.69,4.44,29.5
		c1.61,9.69,3.45,19.35,5.21,29.01c0.82,4.53,1.67,9.06,2.48,13.59c0.15,0.84,0.3,1.74,0.16,2.56c-0.37,2.11-2.35,4.17-4.17,4.32
		c-2.32,0.2-4.34-0.75-5.33-2.77c-1.07-2.21-1.9-4.64-2.3-7.06c-1.22-7.36-2.05-14.78-3.29-22.13c-0.89-5.27-2.34-10.45-3.25-15.72
		c-0.84-4.9-1.3-9.86-1.92-14.8c-0.55-4.32-1.12-8.64-1.63-12.97c-0.26-2.22-0.5-4.45-0.6-6.69c-0.17-3.78-0.28-3.94-4.1-4.1
		c-0.5-0.02-1,0-1.5,0C373.53,90.82,373.53,90.79,373.53,90.75z M376.73,80.37c0.08-0.37,0.32-0.85,0.27-1.3
		c-0.6-5.85-1.24-11.69-1.95-18.24c-0.39,1.44-0.66,2.23-0.8,3.04c-0.65,3.78-1.13,7.59-1.9,11.34c-0.98,4.78-1.07,4.76,3.89,5.36
		C376.34,80.58,376.46,80.49,376.73,80.37z"/>
	<path d="M550.38,210.34c-1.73-0.2-3.5-0.22-5.17-0.65c-2.59-0.68-4.13-2.85-4.01-5.19c0.12-2.32,1.91-4.31,4.49-4.85
		c0.84-0.18,1.75-0.23,2.61-0.15c7.91,0.67,12.83-3.71,15.88-10.19c1.93-4.11,2.72-8.77,3.96-13.19c0.47-1.67,0.8-3.39,1.17-5.09
		c0.48-2.23,0.16-2.61-2.06-2.83c-2.09-0.21-4.25-0.24-6.26-0.79c-6.68-1.84-10.25-6.87-12.35-13.01c-1.08-3.15-1.67-6.51-2.09-9.83
		c-1.18-9.25-2.11-18.53-3.24-27.79c-0.42-3.45-1.24-6.86-1.65-10.32c-0.76-6.55-1.36-13.12-2-19.68c-0.23-2.35-0.38-4.71-0.56-7.07
		c-0.17-2.29-0.14-4.52,1.81-6.19c2.86-2.45,6.52-1.58,7.87,1.97c0.44,1.15,0.69,2.41,0.82,3.64c0.32,2.97,0.57,5.95,0.77,8.93
		c0.32,4.85,0.56,9.71,0.89,14.56c0.08,1.23,0.47,2.44,0.62,3.67c0.81,6.67,1.56,13.34,2.39,20c0.43,3.45,0.97,6.9,1.51,10.33
		c0.7,4.42,1.23,8.89,2.27,13.23c0.5,2.09,1.81,4.08,3.11,5.85c2.05,2.81,5.2,2.59,8.21,2.27c0.37-0.04,0.89-0.84,0.95-1.34
		c0.33-2.59,0.66-5.2,0.77-7.81c0.32-7.48,0.57-14.96,0.79-22.44c0.33-11.48,0.6-22.96,0.93-34.44c0.15-4.98,0.36-9.97,0.6-14.95
		c0.18-3.68,3.61-6.09,7.09-4.95c1.46,0.48,2.75,1.31,2.95,3.05c0.22,1.85,0.56,3.71,0.54,5.56c-0.06,4.24-0.39,8.47-0.48,12.7
		c-0.12,6,0.02,12-0.21,18c-0.25,6.47-0.82,12.93-1.22,19.39c-0.09,1.5-0.08,3-0.09,4.5c-0.09,10.73-0.71,21.43-2.15,32.07
		c-0.62,4.56-0.83,9.2-1.74,13.69c-2.01,9.88-5.81,18.9-14.39,25C559.77,208.79,555.36,210.46,550.38,210.34z"/>
	<path d="M239.56,122.52c-0.53,5.42-1.31,11.6-1.67,17.8c-0.25,4.25-0.5,8.46-1.69,12.55c-1.34,4.6-3.39,8.89-6.79,12.32
		c-3.83,3.86-8.88,5.43-13.99,6.67c-2.04,0.49-4.19,0.63-6.29,0.71c-1.54,0.06-2.36,0.54-2.29,2.17c0.2,4.48,0.33,8.97,0.6,13.45
		c0.28,4.73,0.76,9.44,1.02,14.17c0.07,1.19-0.24,2.47-0.63,3.61c-0.77,2.24-2.62,2.82-4.8,2.72c-2.55-0.11-3.84-0.89-4.49-3.17
		c-0.47-1.66-0.74-3.41-0.86-5.14c-0.35-4.85-0.6-9.7-0.84-14.55c-0.44-8.84-1.18-17.67-1.19-26.51
		c-0.03-20.85,0.26-41.69,0.52-62.54c0.07-5.73,0.47-11.46,0.76-17.18c0.04-0.86,0.26-1.72,0.51-2.55c0.96-3.18,3.23-4.5,6.3-3.18
		c2.41,1.04,4.8,1.1,7.3,1.15c5.15,0.11,10.14,1.08,14.77,3.41c5.67,2.85,9.17,7.24,10.61,13.61c1.27,5.63,1.56,11.31,2.08,17
		C238.88,113.24,239.17,117.46,239.56,122.52z M206.26,131.08c-0.02,0-0.05,0-0.07,0c0,8.49,0,16.99,0,25.48
		c0,5.63,0,5.71,5.83,5.33c6.8-0.45,12.27-4.13,13.82-10.61c1.24-5.18,2.18-10.52,2.41-15.83c0.39-8.98,0.2-17.98,0.08-26.97
		c-0.06-4.98-0.65-9.91-2.1-14.73c-0.99-3.28-3.02-5.27-6.07-6.6c-3.43-1.5-7-1.61-10.64-1.56c-1.71,0.02-2.47,0.7-2.53,2.45
		c-0.19,5.48-0.63,10.96-0.7,16.44C206.17,113.34,206.26,122.21,206.26,131.08z"/>
	<path d="M528.01,120.64c0,5.59-0.47,10.88,0.1,16.07c1.09,9.98,0.37,19.95,0.64,29.91c0.03,1,0.1,2.02-0.09,2.99
		c-0.41,2.09-1.4,3.84-3.78,4.03c-6.44,0.52-12.95,1.55-19.15-1.27c-4.93-2.24-8.1-6.13-9.6-11.31c-2.36-8.12-2.93-16.37-1.61-24.76
		c0.66-4.17,0.92-8.4,1.61-12.56c0.92-5.5,3.67-9.95,8.08-13.46c3.43-2.73,6.93-5.3,11.02-6.97c1.07-0.44,2.03-1.03,2.04-2.39
		c0.04-4.27-0.3-8.5-2.16-12.4c-1.88-3.95-3.91-4.72-8.55-4.27c-2.19,0.21-4.47,0.17-6.63-0.21c-3.08-0.54-4.42-2.43-4.25-5.22
		c0.17-2.92,1.95-4.66,5.17-4.75c3.99-0.11,7.99-0.09,11.98,0c2.77,0.06,5.03,1.54,6.93,3.34c2.35,2.22,4.38,4.72,5.42,7.93
		c1.12,3.46,2.02,6.88,2.07,10.57C527.41,104.28,527.76,112.63,528.01,120.64z M517.24,113.41c-5.9,3.37-10.45,7.07-11.54,13.61
		c-1.2,7.12-2.23,14.29-1.6,21.52c0.29,3.3,1.12,6.65,2.3,9.75c1.63,4.31,5.43,6.02,10.01,5.2c1-0.18,1.6-0.59,1.6-1.67
		c0-0.75,0.03-1.5,0.03-2.24c-0.05-13.84-0.1-27.68-0.19-41.52C517.83,116.72,517.5,115.38,517.24,113.41z"/>
	<path d="M183.11,112.17c0.24,19.57,0.44,36.65,0.65,53.73c0.01,0.62-0.07,1.26,0.01,1.87c0.58,4.25-2.2,6.63-6.38,5.78
		c-1.15-0.23-2.45,0.21-3.68,0.36c-7.07,0.88-13.38-0.59-18.47-5.92c-2.51-2.63-3.74-5.99-4.56-9.3
		c-1.41-5.67-2.42-11.49-1.69-17.39c0.84-6.77,1.21-13.61,3.12-20.23c1.66-5.73,5.43-9.73,10.13-12.97c2.55-1.76,5.27-3.3,8.02-4.75
		c1.79-0.94,2.44-1.95,2.18-4.12c-0.46-3.82-0.41-7.64-2.26-11.25c-1.4-2.73-3.34-3.83-6.23-3.79c-2.62,0.04-5.25,0.15-7.84-0.08
		c-1.27-0.11-2.71-0.66-3.66-1.48c-1.43-1.25-2.41-3.06-1.54-5.03c0.83-1.86,2.21-3.45,4.48-3.49c4.37-0.08,8.75-0.25,13.1,0.06
		c3.2,0.23,5.85,2.07,7.94,4.53c3.67,4.33,5.64,9.31,5.83,15.03C182.49,100.71,182.89,107.68,183.11,112.17z M173.72,149.03
		c-0.28-9.84-0.57-20.17-0.87-30.51c-0.02-0.75-0.08-1.49-0.19-2.23c-0.3-2.11-0.85-2.4-2.65-1.36c-6.11,3.53-9.21,8.87-9.53,15.89
		c-0.07,1.49-0.2,2.98-0.36,4.47c-0.72,6.84-1.08,13.75,0.53,20.44c1.4,5.78,4.18,8.22,9.5,8.33c3.16,0.06,3.48-0.19,3.54-3.29
		C173.77,157.01,173.72,153.27,173.72,149.03z"/>
	<path d="M16.9,105.56c0-18.12-0.07-36.25,0.06-54.37c0.02-3.32,0.6-6.71,1.44-9.93c1.16-4.45,4.55-7.06,9.07-6.86
		c4.46,0.2,8.91,0.9,13.32,1.61c2.1,0.34,3.36,2.85,3.1,5.36c-0.26,2.52-1.76,4.29-4.26,4.46c-2.1,0.14-4.26,0.02-6.34-0.31
		c-5.1-0.8-5.54-0.63-6.13,4.5c-0.27,2.34-0.21,4.75-0.02,7.11c0.18,2.28,0.65,2.59,3.04,2.86c2.22,0.25,4.46,0.37,6.69,0.62
		c4.22,0.48,6.41,3.98,4.69,7.45c-1.04,2.09-3.82,3.29-6.77,2.99c-1.61-0.17-3.23-0.21-4.84-0.37c-1.85-0.19-2.43,0.77-2.4,2.44
		c0.03,1.75-0.01,3.5-0.01,5.25c0.03,23.25,0.07,46.49,0.06,69.74c0,2.36-0.38,4.72-0.5,7.08c-0.06,1.24-0.07,2.51,0.13,3.72
		c0.43,2.61,0.49,2.7,3.3,2.93c3.96,0.33,7.94,0.58,11.91,0.7c2.02,0.06,3.69,0.54,4.85,2.26c1.93,2.85,0.9,6.78-2.42,7.58
		c-3.22,0.78-6.69,1.15-9.98,0.89c-4.43-0.35-8.88-0.9-13.1-2.69c-3.37-1.43-4.68-3.92-4.87-7.27c-0.1-1.74-0.03-3.5-0.03-5.25
		C16.89,140.56,16.89,123.06,16.9,105.56C16.89,105.56,16.9,105.56,16.9,105.56z"/>
	<path d="M259.49,125.02c-0.47,9.42,0.28,18.72,3.72,27.57c1.15,2.97,2.73,5.92,4.7,8.4c2.92,3.69,4.62,3.72,8.7,1.39
		c0.86-0.49,1.75-0.97,2.68-1.29c2.1-0.71,4.35,0.02,5.63,1.73c1.54,2.05,1.57,3.54,0.13,5.79c-2.54,3.95-9.06,6.52-13.71,5.86
		c-8.23-1.18-12.96-6.46-16.24-13.42c-3.05-6.48-4.34-13.41-5.16-20.54c-0.91-7.95-1.77-15.88-1.21-23.85
		c0.66-9.29,1.01-18.66,4.34-27.55c1.97-5.26,4.89-9.73,9.72-12.89c5.39-3.52,12.17-2.06,16.07,1.94c2.04,2.1,3.65,4.42,4.45,7.24
		c1.38,4.92,2.69,9.86,2.4,15.05c-0.39,7.12-4.09,10.75-11.15,10.72c-4.37-0.02-8.74-0.1-13.1-0.38c-1.65-0.11-1.98,0.54-1.98,1.86
		C259.49,116.78,259.49,120.9,259.49,125.02z M268.41,101.18c0-0.04,0.01-0.08,0.01-0.12c1.49,0,2.98,0.01,4.47,0
		c1.38-0.01,1.97-0.74,2.03-2.09c0.17-3.78-0.47-7.44-1.79-10.94c-1.36-3.6-4.17-4.1-6.92-1.37c-0.52,0.52-1.11,1.08-1.38,1.74
		c-1.3,3.21-2.55,6.45-3.7,9.71c-0.52,1.47,0.23,2.44,1.74,2.63C264.71,100.96,266.57,101.04,268.41,101.18z"/>
	<path d="M82.18,135.77c-0.32-4.89,0.51-10.38-1.26-15.79c-1.38-4.24-3.7-7.54-7.4-9.96c-2.6-1.7-5.45-3.16-7.65-5.3
		c-7.37-7.16-5.59-18.02,1.29-23.77c3.23-2.7,6.77-4.19,11-3.75c3.8,0.39,6.84,2.24,9.2,5.19c1.77,2.21,1.59,5.13-0.32,7.14
		c-1.74,1.83-4.38,1.96-6.79,0.31c-0.21-0.14-0.38-0.33-0.58-0.47c-3.1-2.19-4.69-1.95-6.91,1.06c-1.64,2.23-1.03,6.08,1.3,7.68
		c1.64,1.13,3.29,2.26,5.05,3.17c5.43,2.8,8.69,7.39,10.78,12.92c1.51,3.99,2.42,8.1,2.37,12.42c-0.09,7.25-0.07,14.49-0.05,21.74
		c0.02,5.61-1.48,10.91-3.85,15.87c-3.17,6.64-9.99,10.95-17.79,9.24c-5.27-1.15-7.77-5.17-9.97-9.38
		c-1.01-1.92-1.48-4.25-1.66-6.43c-0.28-3.25,1-4.61,4.07-5.18c2.45-0.45,4.46,0.79,5.48,3.34c0.65,1.62,1.29,3.24,2.03,4.82
		c2.01,4.3,5.74,3.3,7.52,0.38c1.09-1.78,1.93-3.77,2.59-5.76C82.64,149.09,82.06,142.68,82.18,135.77z"/>
	<path d="M101.99,125.18c0.21-9.42,1.17-18.69,3.54-27.78c1.92-7.35,5.97-13.39,12.02-18.01c3.62-2.76,7.98-3.5,12.33-3.71
		c4.43-0.22,11.48,4.84,13.05,8.86c1.01,2.58,0.43,4.75-1.68,6.24c-1.93,1.37-4.69,1.25-6.58-0.35c-0.67-0.56-1.21-1.26-1.85-1.85
		c-2.83-2.64-6.21-3-9.1-0.44c-4.04,3.57-7.22,7.6-8.48,13.25c-1.95,8.71-2.75,17.49-2.62,26.31c0.12,8.44,0.87,16.91,3.14,25.12
		c0.53,1.9,1.43,3.72,2.31,5.5c1.75,3.54,5.06,4.64,8.63,4.95c1.13,0.1,2.38-0.53,3.49-1.03c1.13-0.51,2.1-1.36,3.22-1.89
		c2.02-0.95,5.05-0.42,6.23,0.96c1.54,1.81,1.65,4.99-0.15,6.91c-1.33,1.42-3.01,2.62-4.72,3.59c-8.54,4.87-19.83-0.2-23.94-5.64
		c-2.81-3.72-4.99-7.73-5.58-12.49c-0.24-1.97-1.08-3.87-1.27-5.83C103.24,140.31,102.64,132.74,101.99,125.18z"/>
</g>
</svg>
